<?xml version="1.0" encoding="UTF-8"?>
<svg version="1.1" xmlns="http://www.w3.org/2000/svg" width="150" height="32">
<path d="M0 0 C49.5 0 99 0 150 0 C150 10.56 150 21.12 150 32 C100.5 32 51 32 0 32 C0 21.44 0 10.88 0 0 Z " fill="#F7F9FA" transform="translate(0,0)"/>
<path d="M0 0 C1.8975 -0.061875 3.795 -0.12375 5.75 -0.1875 C7.35101563 -0.23970703 7.35101563 -0.23970703 8.984375 -0.29296875 C12.37675029 0.03660139 13.71178306 0.4884095 16 3 C16.53125 5.375 16.53125 5.375 16.5 8 C16.5103125 8.86625 16.520625 9.7325 16.53125 10.625 C16 13 16 13 14.484375 14.80078125 C10.94470419 16.50939593 7.5871614 16.31969902 3.75 16.1875 C3.00492188 16.17396484 2.25984375 16.16042969 1.4921875 16.14648438 C-0.33885416 16.11127204 -2.16952169 16.05746851 -4 16 C-5.65 12.7 -7.3 9.4 -9 6 C-9.804375 7.65 -10.60875 9.3 -11.4375 11 C-14.25364313 15.7270974 -14.25364313 15.7270974 -17.296875 16.83984375 C-19.78676086 16.94155477 -21.64269059 16.81222146 -24 16 C-25.75 13.5625 -25.75 13.5625 -27 11 C-29.59122743 10.11341534 -29.59122743 10.11341534 -32 10 C-32 11.98 -32 13.96 -32 16 C-33.32 16 -34.64 16 -36 16 C-36 11.05 -36 6.1 -36 1 C-25.16015625 0.90234375 -25.16015625 0.90234375 -22 1 C-21 2 -21 2 -20.9375 4.8125 C-20.958125 5.864375 -20.97875 6.91625 -21 8 C-21.43386092 11.87797662 -21.43386092 11.87797662 -19.5 13.75 C-19.005 14.1625 -18.51 14.575 -18 15 C-17.7525 14.175 -17.505 13.35 -17.25 12.5 C-15.81295189 8.47626529 -13.97645485 4.78020976 -12 1 C-10.35 1 -8.7 1 -7 1 C-5.02 4.63 -3.04 8.26 -1 12 C-0.67 8.04 -0.34 4.08 0 0 Z " fill="#0F171F" transform="translate(107,8)"/>
<path d="M0 0 C4.95 0 9.9 0 15 0 C15 1.32 15 2.64 15 4 C11.37 4 7.74 4 4 4 C4 4.66 4 5.32 4 6 C7.3 6 10.6 6 14 6 C14 7.32 14 8.64 14 10 C10.7 10 7.4 10 4 10 C4 10.66 4 11.32 4 12 C7.63 12 11.26 12 15 12 C15 13.32 15 14.64 15 16 C10.05 16 5.1 16 0 16 C0 10.72 0 5.44 0 0 Z " fill="#2D343B" transform="translate(124,8)"/>
<path d="M0 0 C10.83984375 -0.09765625 10.83984375 -0.09765625 14 0 C15 1 15 1 15.0625 3.8125 C15.041875 4.864375 15.02125 5.91625 15 7 C15 10.11257569 15.17361624 12.10765685 16 15 C14.68 15 13.36 15 12 15 C11.525625 14.195625 11.05125 13.39125 10.5625 12.5625 C9.23520082 9.74523291 9.23520082 9.74523291 6.3125 9.1875 C5.549375 9.125625 4.78625 9.06375 4 9 C4 10.98 4 12.96 4 15 C2.68 15 1.36 15 0 15 C0 10.05 0 5.1 0 0 Z " fill="#1F272E" transform="translate(71,9)"/>
<path d="M0 0 C3.96 0 7.92 0 12 0 C12 0.33 12 0.66 12 1 C8.37 1 4.74 1 1 1 C1 5.95 1 10.9 1 16 C-0.65 16 -2.3 16 -4 16 C-5.65 12.7 -7.3 9.4 -9 6 C-9.37511719 6.721875 -9.75023438 7.44375 -10.13671875 8.1875 C-10.64847656 9.115625 -11.16023438 10.04375 -11.6875 11 C-12.43580078 12.3921875 -12.43580078 12.3921875 -13.19921875 13.8125 C-15 16 -15 16 -17.70703125 16.3125 C-18.46371094 16.209375 -19.22039062 16.10625 -20 16 C-19.34 15.67 -18.68 15.34 -18 15 C-17.31875294 13.00491933 -16.65572791 11.00361307 -16 9 C-14.73773124 6.29583192 -13.38260334 3.64439667 -12 1 C-10.35 1 -8.7 1 -7 1 C-5.02 4.63 -3.04 8.26 -1 12 C-0.67 8.04 -0.34 4.08 0 0 Z " fill="#3D434A" transform="translate(107,8)"/>
<path d="M0 0 C1.65 0 3.3 0 5 0 C7.31 4.95 9.62 9.9 12 15 C10.35 15 8.7 15 7 15 C5.35 11.7 3.7 8.4 2 5 C0.35 8.3 -1.3 11.6 -3 15 C-4.32 15 -5.64 15 -7 15 C-5.45454854 9.52067211 -2.84456788 4.88570819 0 0 Z " fill="#637AF9" transform="translate(17,9)"/>
<path d="M0 0 C1.65 0 3.3 0 5 0 C6.00732399 1.93370231 7.00563288 3.87210306 8 5.8125 C8.8353125 7.43091797 8.8353125 7.43091797 9.6875 9.08203125 C11 12 11 12 11 15 C9.68 15 8.36 15 7 15 C5.35 11.7 3.7 8.4 2 5 C0.35 8.3 -1.3 11.6 -3 15 C-4.32 15 -5.64 15 -7 15 C-5.45454854 9.52067211 -2.84456788 4.88570819 0 0 Z " fill="#546DF3" transform="translate(46,9)"/>
<path d="M0 0 C2.25 0 2.25 0 5 1 C6.70175879 3.57166744 7.77644187 6.14503103 9 9 C10.65 6.03 12.3 3.06 14 0 C15.32 0.33 16.64 0.66 18 1 C15.69 5.62 13.38 10.24 11 15 C9.35 15 7.7 15 6 15 C4.99539469 12.87717331 3.99644398 10.75166979 3 8.625 C2.443125 7.44164062 1.88625 6.25828125 1.3125 5.0390625 C0 2 0 2 0 0 Z " fill="#181F27" transform="translate(25,9)"/>
<path d="M0 0 C4.95 0 9.9 0 15 0 C15 0.99 15 1.98 15 3 C13.02 3 11.04 3 9 3 C9 6.96 9 10.92 9 15 C7.68 15 6.36 15 5 15 C5 11.04 5 7.08 5 3 C3.35 3 1.7 3 0 3 C0 2.01 0 1.02 0 0 Z " fill="#161E25" transform="translate(55,9)"/>
<path d="M0 0 C10.05859375 -0.09765625 10.05859375 -0.09765625 13 0 C14 1 14 1 14.0625 3.8125 C14.041875 4.864375 14.02125 5.91625 14 7 C14 10.11257569 14.17361624 12.10765685 15 15 C13.68 15 12.36 15 11 15 C8.82542733 12.12645755 8 10.63563409 8 7 C8.66 6.67 9.32 6.34 10 6 C9.67 4.68 9.34 3.36 9 2 C6.36 1.67 3.72 1.34 1 1 C1 5.29 1 9.58 1 14 C0.67 14 0.34 14 0 14 C0 9.38 0 4.76 0 0 Z " fill="#141B23" transform="translate(72,9)"/>
<path d="M0 0 C1.47668858 0.0133035 2.95331108 0.03716415 4.4296875 0.0703125 C5.18378906 0.07933594 5.93789063 0.08835937 6.71484375 0.09765625 C8.57826004 0.1212438 10.44151343 0.15711531 12.3046875 0.1953125 C12.3046875 0.5253125 12.3046875 0.8553125 12.3046875 1.1953125 C7.3546875 1.1953125 2.4046875 1.1953125 -2.6953125 1.1953125 C-2.6953125 2.1853125 -2.6953125 3.1753125 -2.6953125 4.1953125 C-1.0453125 4.1953125 0.6046875 4.1953125 2.3046875 4.1953125 C2.38636196 5.61100314 2.44418448 7.02808055 2.4921875 8.4453125 C2.52699219 9.23421875 2.56179687 10.023125 2.59765625 10.8359375 C2.24047438 13.71244218 1.18717032 15.04108019 -0.6953125 17.1953125 C-1.34666175 15.63510383 -1.99114214 14.07202671 -2.6328125 12.5078125 C-2.99246094 11.63769531 -3.35210937 10.76757812 -3.72265625 9.87109375 C-4.66569266 7.27679679 -5.40054639 4.94178406 -5.6953125 2.1953125 C-3.6953125 0.1953125 -3.6953125 0.1953125 0 0 Z " fill="#DBDDDE" transform="translate(57.6953125,7.8046875)"/>
<path d="M0 0 C2.33294775 -0.04241723 4.66702567 -0.04092937 7 0 C8 1 8 1 8.0625 4.5625 C8.041875 5.696875 8.02125 6.83125 8 8 C5.36 8 2.72 8 0 8 C0 5.36 0 2.72 0 0 Z " fill="#EFF0F1" transform="translate(111,12)"/>
<path d="M0 0 C1.32 0 2.64 0 4 0 C2.45454854 5.47932789 -0.15543212 10.11429181 -3 15 C-4.65 15 -6.3 15 -8 15 C-7.34 14.67 -6.68 14.34 -6 14 C-5.31875294 12.00491933 -4.65572791 10.00361307 -4 8 C-2.73773124 5.29583192 -1.38260334 2.64439667 0 0 Z " fill="#566EF4" transform="translate(95,9)"/>
<path d="M0 0 C3.19446042 1.59723021 3.83269963 4.89976488 5.125 8.0625 C5.40214844 8.72572266 5.67929687 9.38894531 5.96484375 10.07226562 C6.64920153 11.71236443 7.3253775 13.35587283 8 15 C6.35 15 4.7 15 3 15 C-1.68688577 5.3960689 -1.68688577 5.3960689 -1 1 C-0.67 0.67 -0.34 0.34 0 0 Z " fill="#20272F" transform="translate(21,9)"/>
<path d="M0 0 C0.99 0.33 1.98 0.66 3 1 C2.34 3.97 1.68 6.94 1 10 C0.67 10 0.34 10 0 10 C-0.33 8.02 -0.66 6.04 -1 4 C-3.31 3.67 -5.62 3.34 -8 3 C-8 5.64 -8 8.28 -8 11 C-6.02 11 -4.04 11 -2 11 C-2 11.33 -2 11.66 -2 12 C-4.64 12.33 -7.28 12.66 -10 13 C-10 9.04 -10 5.08 -10 1 C-8.535625 1.020625 -7.07125 1.04125 -5.5625 1.0625 C-4.04167482 1.08392007 -2.51928038 1.07179964 -1 1 C-0.67 0.67 -0.34 0.34 0 0 Z " fill="#252C34" transform="translate(119,9)"/>
<path d="M0 0 C0.66 0 1.32 0 2 0 C3.00732399 1.93370231 4.00563288 3.87210306 5 5.8125 C5.8353125 7.43091797 5.8353125 7.43091797 6.6875 9.08203125 C8 12 8 12 8 15 C6.68 15 5.36 15 4 15 C-0.59225513 5.77448747 -0.59225513 5.77448747 0 0 Z " fill="#151E29" transform="translate(49,9)"/>
<path d="M0 0 C1.65 0 3.3 0 5 0 C3.68 0.33 2.36 0.66 1 1 C1.6496875 2.26457031 1.6496875 2.26457031 2.3125 3.5546875 C2.869375 4.65039062 3.42625 5.74609375 4 6.875 C4.556875 7.96554688 5.11375 9.05609375 5.6875 10.1796875 C7 13 7 13 7 15 C6.01 15 5.02 15 4 15 C3.12855131 13.4470724 2.27846343 11.88214564 1.4375 10.3125 C0.72400391 9.00732422 0.72400391 9.00732422 -0.00390625 7.67578125 C-1.14268368 4.61671247 -0.92718689 3.08136961 0 0 Z " fill="#DADCDD" transform="translate(24,8)"/>
<path d="M0 0 C2.3125 0.0625 2.3125 0.0625 5 1 C6.88042897 4.50148842 8 7.0080306 8 11 C6.140625 10.74609375 6.140625 10.74609375 4 10 C2.734375 8.22265625 2.734375 8.22265625 1.75 6.0625 C1.41484375 5.35222656 1.0796875 4.64195313 0.734375 3.91015625 C0 2 0 2 0 0 Z " fill="#192128" transform="translate(25,9)"/>
<path d="M0 0 C1 3 1 3 0.00390625 5.48046875 C-0.47175781 6.37378906 -0.94742188 7.26710938 -1.4375 8.1875 C-1.91058594 9.08855469 -2.38367187 9.98960938 -2.87109375 10.91796875 C-3.24363281 11.60503906 -3.61617187 12.29210938 -4 13 C-4.99 13 -5.98 13 -7 13 C-5.69045524 8.76916309 -4.16145284 4.872603 -2 1 C-1.34 0.67 -0.68 0.34 0 0 Z " fill="#E5E7EA" transform="translate(44,9)"/>
<path d="M0 0 C0.99 0.33 1.98 0.66 3 1 C2.67 2.98 2.34 4.96 2 7 C0.35 7.33 -1.3 7.66 -3 8 C-1.125 2.25 -1.125 2.25 0 0 Z " fill="#5C74F9" transform="translate(42,16)"/>
<path d="M0 0 C1.32 0.33 2.64 0.66 4 1 C1.525 5.455 1.525 5.455 -1 10 C-2.31223496 6.06329512 -1.24296256 3.87511856 0 0 Z " fill="#4F68F1" transform="translate(17,9)"/>
<path d="M0 0 C3 3.625 3 3.625 3 7 C1.68 7 0.36 7 -1 7 C-1.66 5.02 -2.32 3.04 -3 1 C-2.01 0.67 -1.02 0.34 0 0 Z " fill="#232A31" transform="translate(54,17)"/>
<path d="M0 0 C0.99 0.99 1.98 1.98 3 3 C2.67 3.99 2.34 4.98 2 6 C0.35 6 -1.3 6 -3 6 C-3.33 4.68 -3.66 3.36 -4 2 C-2.68 1.34 -1.36 0.68 0 0 Z " fill="#242B32" transform="translate(34,18)"/>
<path d="M0 0 C2.31 0 4.62 0 7 0 C7 0.99 7 1.98 7 3 C4.69 3 2.38 3 0 3 C0 2.01 0 1.02 0 0 Z " fill="#D4D6D8" transform="translate(75,12)"/>
<path d="M0 0 C0.66 0.33 1.32 0.66 2 1 C2.625 4.0625 2.625 4.0625 3 7 C1.68 6.67 0.36 6.34 -1 6 C-1.042721 4.33388095 -1.04063832 2.66617115 -1 1 C-0.67 0.67 -0.34 0.34 0 0 Z " fill="#192129" transform="translate(21,9)"/>
<path d="M0 0 C0.33 0.99 0.66 1.98 1 3 C2.98 3 4.96 3 7 3 C4.66785852 4.20628008 2.50357861 5.1654738 0 6 C-0.38218767 4.34385343 -0.71395102 2.67542976 -1 1 C-0.67 0.67 -0.34 0.34 0 0 Z " fill="#E5E6E7" transform="translate(53,9)"/>
<path d="M0 0 C1.5 1.3125 1.5 1.3125 3 3 C3 3.99 3 4.98 3 6 C1.68 5.67 0.36 5.34 -1 5 C-0.67 3.35 -0.34 1.7 0 0 Z " fill="#121A22" transform="translate(30,14)"/>
</svg>
